# xmcd CD database file
#
# Track frame offsets:
#	150
#	23567
#	46572
#	77592
#	96415
#	112985
#	132352
#	155400
#
# Disc length: 2492 seconds
#
# Revision: 0
# Processed by: cddbd v1.5.1PL2 Copyright (c) Steve Scherf et al.
# Submitted via: CDex 1.51
#
DISCID=5309ba08
DTITLE=Gary B. B. Coleman - Dancin' My Blues Away
DYEAR=1989
DGENRE=Blues
TTITLE0=A Word Of Warning
TTITLE1=Think Before You Act
TTITLE2=What's The name Of That Thing
TTITLE3=I Gotta Play The Blues For You
TTITLE4=Dancin' My Blues Away
TTITLE5=Maybe Love Wasn't Meant For Me
TTITLE6=Cant't Spend My Money
TTITLE7=Blues At Sunrise
EXTD=YEAR: 1989
EXTT0=
EXTT1=
EXTT2=
EXTT3=
EXTT4=
EXTT5=
EXTT6=
EXTT7=
PLAYORDER=
